<mxfile host="app.diagrams.net" modified="2023-01-25T07:05:43.820Z" agent="5.0 (Macintosh; Intel Mac OS X 10_15_7) AppleWebKit/537.36 (KHTML, like Gecko) Chrome/108.0.0.0 Safari/537.36" etag="QpMSacQFFcCDcG0xYj4t" version="20.8.8" type="github">
  <diagram name="ページ1" id="YB2wGb50sYERgTEFbYCt">
    <mxGraphModel dx="954" dy="616" grid="1" gridSize="10" guides="1" tooltips="1" connect="1" arrows="1" fold="1" page="1" pageScale="1" pageWidth="827" pageHeight="1169" math="0" shadow="0">
      <root>
        <mxCell id="0" />
        <mxCell id="1" parent="0" />
        <mxCell id="rfHzbmdxohwyHqKkC-Ng-18" value="Label" style="swimlane;fontStyle=0;childLayout=stackLayout;horizontal=1;startSize=26;horizontalStack=0;resizeParent=1;resizeParentMax=0;resizeLast=0;collapsible=1;marginBottom=0;align=center;fontSize=14;verticalAlign=bottom;" vertex="1" parent="1">
          <mxGeometry x="340" y="520" width="160" height="86" as="geometry" />
        </mxCell>
        <mxCell id="rfHzbmdxohwyHqKkC-Ng-34" value="id" style="text;strokeColor=#000000;fillColor=none;spacingLeft=4;spacingRight=4;overflow=hidden;rotatable=0;points=[[0,0.5],[1,0.5]];portConstraint=eastwest;fontSize=12;" vertex="1" parent="rfHzbmdxohwyHqKkC-Ng-18">
          <mxGeometry y="26" width="160" height="30" as="geometry" />
        </mxCell>
        <mxCell id="rfHzbmdxohwyHqKkC-Ng-20" value="label_name:string" style="text;strokeColor=none;fillColor=none;spacingLeft=4;spacingRight=4;overflow=hidden;rotatable=0;points=[[0,0.5],[1,0.5]];portConstraint=eastwest;fontSize=12;" vertex="1" parent="rfHzbmdxohwyHqKkC-Ng-18">
          <mxGeometry y="56" width="160" height="30" as="geometry" />
        </mxCell>
        <mxCell id="rfHzbmdxohwyHqKkC-Ng-43" value="User" style="swimlane;fontStyle=0;childLayout=stackLayout;horizontal=1;startSize=26;horizontalStack=0;resizeParent=1;resizeParentMax=0;resizeLast=0;collapsible=1;marginBottom=0;align=center;fontSize=14;verticalAlign=bottom;" vertex="1" parent="1">
          <mxGeometry x="110" y="310" width="160" height="146" as="geometry" />
        </mxCell>
        <mxCell id="rfHzbmdxohwyHqKkC-Ng-44" value="id&#xa;" style="text;strokeColor=#000000;fillColor=none;spacingLeft=4;spacingRight=4;overflow=hidden;rotatable=0;points=[[0,0.5],[1,0.5]];portConstraint=eastwest;fontSize=12;" vertex="1" parent="rfHzbmdxohwyHqKkC-Ng-43">
          <mxGeometry y="26" width="160" height="30" as="geometry" />
        </mxCell>
        <mxCell id="rfHzbmdxohwyHqKkC-Ng-45" value="user_name:string" style="text;strokeColor=none;fillColor=none;spacingLeft=4;spacingRight=4;overflow=hidden;rotatable=0;points=[[0,0.5],[1,0.5]];portConstraint=eastwest;fontSize=12;" vertex="1" parent="rfHzbmdxohwyHqKkC-Ng-43">
          <mxGeometry y="56" width="160" height="30" as="geometry" />
        </mxCell>
        <mxCell id="rfHzbmdxohwyHqKkC-Ng-46" value="email:string&#xa;" style="text;strokeColor=none;fillColor=none;spacingLeft=4;spacingRight=4;overflow=hidden;rotatable=0;points=[[0,0.5],[1,0.5]];portConstraint=eastwest;fontSize=12;" vertex="1" parent="rfHzbmdxohwyHqKkC-Ng-43">
          <mxGeometry y="86" width="160" height="30" as="geometry" />
        </mxCell>
        <mxCell id="rfHzbmdxohwyHqKkC-Ng-51" value="password:string" style="text;strokeColor=none;fillColor=none;spacingLeft=4;spacingRight=4;overflow=hidden;rotatable=0;points=[[0,0.5],[1,0.5]];portConstraint=eastwest;fontSize=12;" vertex="1" parent="rfHzbmdxohwyHqKkC-Ng-43">
          <mxGeometry y="116" width="160" height="30" as="geometry" />
        </mxCell>
        <mxCell id="rfHzbmdxohwyHqKkC-Ng-47" value="Task" style="swimlane;fontStyle=0;childLayout=stackLayout;horizontal=1;startSize=26;horizontalStack=0;resizeParent=1;resizeParentMax=0;resizeLast=0;collapsible=1;marginBottom=0;align=center;fontSize=14;verticalAlign=bottom;" vertex="1" parent="1">
          <mxGeometry x="570" y="280" width="160" height="206" as="geometry" />
        </mxCell>
        <mxCell id="rfHzbmdxohwyHqKkC-Ng-48" value="id" style="text;strokeColor=#000000;fillColor=none;spacingLeft=4;spacingRight=4;overflow=hidden;rotatable=0;points=[[0,0.5],[1,0.5]];portConstraint=eastwest;fontSize=12;" vertex="1" parent="rfHzbmdxohwyHqKkC-Ng-47">
          <mxGeometry y="26" width="160" height="30" as="geometry" />
        </mxCell>
        <mxCell id="rfHzbmdxohwyHqKkC-Ng-49" value="title:string" style="text;strokeColor=none;fillColor=none;spacingLeft=4;spacingRight=4;overflow=hidden;rotatable=0;points=[[0,0.5],[1,0.5]];portConstraint=eastwest;fontSize=12;" vertex="1" parent="rfHzbmdxohwyHqKkC-Ng-47">
          <mxGeometry y="56" width="160" height="30" as="geometry" />
        </mxCell>
        <mxCell id="rfHzbmdxohwyHqKkC-Ng-50" value="content:text" style="text;strokeColor=none;fillColor=none;spacingLeft=4;spacingRight=4;overflow=hidden;rotatable=0;points=[[0,0.5],[1,0.5]];portConstraint=eastwest;fontSize=12;" vertex="1" parent="rfHzbmdxohwyHqKkC-Ng-47">
          <mxGeometry y="86" width="160" height="30" as="geometry" />
        </mxCell>
        <mxCell id="rfHzbmdxohwyHqKkC-Ng-54" value="deadline:datatime" style="text;strokeColor=none;fillColor=none;spacingLeft=4;spacingRight=4;overflow=hidden;rotatable=0;points=[[0,0.5],[1,0.5]];portConstraint=eastwest;fontSize=12;" vertex="1" parent="rfHzbmdxohwyHqKkC-Ng-47">
          <mxGeometry y="116" width="160" height="30" as="geometry" />
        </mxCell>
        <mxCell id="rfHzbmdxohwyHqKkC-Ng-53" value="priority:integer" style="text;strokeColor=none;fillColor=none;spacingLeft=4;spacingRight=4;overflow=hidden;rotatable=0;points=[[0,0.5],[1,0.5]];portConstraint=eastwest;fontSize=12;" vertex="1" parent="rfHzbmdxohwyHqKkC-Ng-47">
          <mxGeometry y="146" width="160" height="30" as="geometry" />
        </mxCell>
        <mxCell id="rfHzbmdxohwyHqKkC-Ng-52" value="status:integer" style="text;strokeColor=none;fillColor=none;spacingLeft=4;spacingRight=4;overflow=hidden;rotatable=0;points=[[0,0.5],[1,0.5]];portConstraint=eastwest;fontSize=12;" vertex="1" parent="rfHzbmdxohwyHqKkC-Ng-47">
          <mxGeometry y="176" width="160" height="30" as="geometry" />
        </mxCell>
        <mxCell id="rfHzbmdxohwyHqKkC-Ng-55" value="" style="edgeStyle=entityRelationEdgeStyle;fontSize=12;html=1;endArrow=ERzeroToMany;startArrow=ERmandOne;rounded=0;exitX=1;exitY=0.133;exitDx=0;exitDy=0;exitPerimeter=0;" edge="1" parent="1" source="rfHzbmdxohwyHqKkC-Ng-45">
          <mxGeometry width="100" height="100" relative="1" as="geometry">
            <mxPoint x="470" y="470" as="sourcePoint" />
            <mxPoint x="570" y="370" as="targetPoint" />
          </mxGeometry>
        </mxCell>
        <mxCell id="rfHzbmdxohwyHqKkC-Ng-60" value="" style="fontSize=12;html=1;endArrow=ERzeroToMany;startArrow=ERmandOne;rounded=0;entryX=0;entryY=1;entryDx=0;entryDy=0;entryPerimeter=0;" edge="1" parent="1" target="rfHzbmdxohwyHqKkC-Ng-34">
          <mxGeometry width="100" height="100" relative="1" as="geometry">
            <mxPoint x="160" y="456" as="sourcePoint" />
            <mxPoint x="310" y="513" as="targetPoint" />
          </mxGeometry>
        </mxCell>
        <mxCell id="rfHzbmdxohwyHqKkC-Ng-61" value="" style="fontSize=12;html=1;endArrow=ERzeroToMany;startArrow=ERmandOne;rounded=0;entryX=1.019;entryY=-0.067;entryDx=0;entryDy=0;entryPerimeter=0;" edge="1" parent="1" target="rfHzbmdxohwyHqKkC-Ng-20">
          <mxGeometry width="100" height="100" relative="1" as="geometry">
            <mxPoint x="640" y="485" as="sourcePoint" />
            <mxPoint x="540" y="585" as="targetPoint" />
          </mxGeometry>
        </mxCell>
      </root>
    </mxGraphModel>
  </diagram>
</mxfile>
